<svg xmlns="http://www.w3.org/2000/svg" width="1200" height="630" viewBox="0 0 1200 630">
  <defs>
    <linearGradient id="bg" x1="0%" y1="0%" x2="100%" y2="100%">
      <stop offset="0%" style="stop-color:#09090f"/>
      <stop offset="100%" style="stop-color:#0f1524"/>
    </linearGradient>
    <linearGradient id="accent" x1="0%" y1="0%" x2="100%" y2="0%">
      <stop offset="0%" style="stop-color:#38bdf8"/>
      <stop offset="100%" style="stop-color:#7dd3fc"/>
    </linearGradient>
  </defs>

  <!-- Background -->
  <rect width="1200" height="630" fill="url(#bg)"/>

  <!-- Dot grid pattern -->
  <pattern id="dots" x="0" y="0" width="32" height="32" patternUnits="userSpaceOnUse">
    <circle cx="1" cy="1" r="1" fill="#38bdf8" opacity="0.15"/>
  </pattern>
  <rect width="1200" height="630" fill="url(#dots)"/>

  <!-- Left accent bar -->
  <rect x="80" y="80" width="4" height="470" fill="url(#accent)" opacity="0.6" rx="2"/>

  <!-- Orange top accent -->
  <rect x="80" y="80" width="200" height="4" fill="#e8753d" rx="2"/>

  <!-- Logo area -->
  <rect x="96" y="110" width="52" height="52" rx="10" fill="#13181f" stroke="#1e2738" stroke-width="1"/>
  <text x="122" y="143" font-family="monospace" font-size="22" font-weight="900" fill="#38bdf8" text-anchor="middle">&gt;_</text>

  <!-- Brand name -->
  <text x="164" y="147" font-family="system-ui, Arial, sans-serif" font-size="28" font-weight="900" letter-spacing="-1" fill="white">SITE</text>
  <text x="233" y="147" font-family="system-ui, Arial, sans-serif" font-size="28" font-weight="900" letter-spacing="-1" fill="#e8753d"> FORGE</text>

  <!-- Main headline -->
  <text x="96" y="280" font-family="system-ui, Arial, sans-serif" font-size="64" font-weight="800" letter-spacing="-2" fill="white">Il tuo sito web.</text>
  <text x="96" y="358" font-family="system-ui, Arial, sans-serif" font-size="64" font-weight="800" letter-spacing="-2" fill="#38bdf8">Costruito per restare.</text>

  <!-- Subtitle -->
  <text x="96" y="430" font-family="system-ui, Arial, sans-serif" font-size="26" fill="#64748b">Siti vetrina · E-commerce · Siti 3D · Fotografia</text>

  <!-- Bottom info -->
  <text x="96" y="530" font-family="monospace" font-size="18" fill="#38bdf8" opacity="0.7">matteo@tntc.it</text>
  <text x="96" y="558" font-family="monospace" font-size="18" fill="#64748b" opacity="0.6">forgesite.it</text>

  <!-- Right decorative code block -->
  <rect x="720" y="160" width="400" height="300" rx="12" fill="#13181f" stroke="#1e2738" stroke-width="1" opacity="0.9"/>
  <rect x="720" y="160" width="400" height="40" rx="12" fill="#0f1117" opacity="0.9"/>
  <rect x="720" y="185" width="400" height="15" fill="#0f1117" opacity="0.9"/>
  <circle cx="745" cy="180" r="6" fill="#f87171"/>
  <circle cx="765" cy="180" r="6" fill="#fbbf24"/>
  <circle cx="785" cy="180" r="6" fill="#4ade80"/>
  <text x="820" y="185" font-family="monospace" font-size="14" fill="#64748b">index.astro</text>
  <text x="740" y="232" font-family="monospace" font-size="14" fill="#64748b">---</text>
  <text x="740" y="258" font-family="monospace" font-size="14" fill="#7dd3fc">import </text>
  <text x="800" y="258" font-family="monospace" font-size="14" fill="white">Layout </text>
  <text x="856" y="258" font-family="monospace" font-size="14" fill="#7dd3fc">from </text>
  <text x="900" y="258" font-family="monospace" font-size="14" fill="#86efac">'./Layout'</text>
  <text x="740" y="284" font-family="monospace" font-size="14" fill="#64748b">---</text>
  <text x="740" y="318" font-family="monospace" font-size="14" fill="#94a3b8">&lt;</text>
  <text x="752" y="318" font-family="monospace" font-size="14" fill="#38bdf8">Layout</text>
  <text x="808" y="318" font-family="monospace" font-size="14" fill="#94a3b8">&gt;</text>
  <text x="756" y="344" font-family="monospace" font-size="14" fill="#7dd3fc">  &lt;Hero </text>
  <text x="820" y="344" font-family="monospace" font-size="14" fill="#86efac">fast</text>
  <text x="853" y="344" font-family="monospace" font-size="14" fill="#94a3b8">={</text>
  <text x="870" y="344" font-family="monospace" font-size="14" fill="#38bdf8">true</text>
  <text x="904" y="344" font-family="monospace" font-size="14" fill="#94a3b8">} /&gt;</text>
  <text x="740" y="370" font-family="monospace" font-size="14" fill="#94a3b8">&lt;/</text>
  <text x="760" y="370" font-family="monospace" font-size="14" fill="#38bdf8">Layout</text>
  <text x="816" y="370" font-family="monospace" font-size="14" fill="#94a3b8">&gt;</text>

  <!-- Pills bottom right -->
  <rect x="732" y="400" width="90" height="28" rx="14" fill="#0c4a6e" stroke="#38bdf8" stroke-width="1" opacity="0.6"/>
  <text x="777" y="419" font-family="monospace" font-size="12" fill="#38bdf8" text-anchor="middle">✓ Build OK</text>
  <rect x="834" y="400" width="80" height="28" rx="14" fill="#0c4a6e" stroke="#38bdf8" stroke-width="1" opacity="0.6"/>
  <text x="874" y="419" font-family="monospace" font-size="12" fill="#38bdf8" text-anchor="middle">⚡ 100 Perf</text>
  <rect x="926" y="400" width="72" height="28" rx="14" fill="#0c4a6e" stroke="#38bdf8" stroke-width="1" opacity="0.6"/>
  <text x="962" y="419" font-family="monospace" font-size="12" fill="#38bdf8" text-anchor="middle">🔒 GDPR</text>
</svg>
